Patient4_TMGait_0pt5_02_right_33_EMG.mot
version=1
nRows=16
nColumns=33
inDegrees=no
endheader
time	1LAddLong	2LGlutMax	3LGlutMed	4LIliopsoas	5LSemiMemb	6LBicFemLong	7LRecFem	8LVastMed	9LVastLat	10LGasMed	11LTibAnt	12lTibPost	13LPeroneusLong	14LSol	15LExtDigLong	16LFlexDigLong	17RAddLong	18RGlutMax	19RGlutMed	20RIliopsoas	21RSemiMemb	22RBicFemLong	23RRecFem	24RVastMed	25RVastLat	26RGasMed	27RTibAnt	28RTibPost	29RPeroneusLong	30RSol	31RExtDigLong	32RFlexDigLong
43.16	-0.002289	-0.048981	0.012054	-0.006714	-0.017242	0.027161	-0.004425	0.002747	0.063171	-0.017395	-0.16037	0.013123	0.2063	0.12817	0.087891	-0.008698	-0.028839	-0.20828	-0.28458	-0.13001	-0.004883	-0.031738	0.53131	0.052032	0.001678	-0.003662	0.005493	-0.000153	0.68817	0.12909	-0.006409	-0.007935
43.161	-0.009766	-0.015106	0.007477	0.010986	-0.015564	0.031738	0.02243	0.011444	0.037537	-0.016174	-0.13336	0.007935	-0.2919	0.070343	0.44891	0.003662	-0.020294	-0.17288	-0.31052	-0.099945	-0.002747	-0.025024	0.54245	0.036316	-0.001678	-0.005951	0.050049	0.003052	0.28503	0.08667	0.000305	-0.010071
43.162	-0.005493	-0.015106	0.15823	0.005188	-0.012512	0.023651	0.045929	0.002289	-0.000153	-0.032196	-0.2121	0.008698	-0.18234	0.071716	-0.036926	0.00885	-0.010834	-0.14816	-0.1474	-0.042419	-0.010986	-0.035858	0.54672	0.053558	0.005188	-0.01709	0.20737	-0.001373	-0.10956	0.034027	-0.003357	-0.010681
43.163	-0.023193	-0.027618	0.13733	0.029755	-0.033264	0.00351	0.023651	-0.00061	-0.016785	-0.033264	-0.035248	0.015411	-0.081482	0.085907	-0.27481	-0.005341	-0.005951	-0.17425	-0.26184	-0.016174	-0.03479	-0.045929	0.42694	0.035553	-0.016479	-0.025635	0.45166	0.001373	-0.19287	-0.019684	-0.005188	-0.009155
43.164	-0.012512	-0.032501	-0.10407	0.013123	-0.04364	-0.009003	0.037079	0.003204	-0.004425	-0.00412	0.10513	0.015411	-0.36209	0.07431	-0.46692	-0.00061	0.006104	-0.2034	-0.17914	0.016174	-0.037689	-0.039825	0.17456	-0.000153	0	-0.012512	-0.2066	0.000916	0.029755	-0.070801	0.000305	-0.006561
43.165	-0.003967	-0.055237	-0.093536	0.002289	-0.056458	-0.027161	0.057068	0.003967	-0.005341	0.016022	0.059967	0.007019	-0.39032	-0.060425	-0.62729	-0.010529	0.000458	-0.18127	0.023346	0.021973	-0.034027	-0.047455	-0.1062	-0.093079	-0.004425	-0.010986	-0.60104	0.001526	0.15656	-0.10468	-0.00946	0.000153
43.166	-0.012207	-0.019684	0.062561	0.003052	-0.016785	-0.044708	-0.023041	0.010071	0.002289	0.016022	0.002747	0.011902	0.031281	-0.034637	-0.33218	0.007324	0.004425	-0.23911	-0.15503	0.048218	-0.029602	-0.038147	-0.19455	-0.20218	-0.011444	-0.014191	-0.76019	0.000458	0.18753	-0.088348	0.001526	-0.002136
43.167	-0.005798	-0.010071	-0.032349	-0.004425	0.028076	0.000763	-0.066071	0.00946	0.04303	0.006409	-0.008087	0.014801	0.13992	-0.1329	0.18127	0.002594	-0.00061	-0.19318	-0.20096	0.044403	-0.041809	-0.033264	-0.062561	-0.159	-0.0177	-0.005493	-0.77621	0.002594	0.26749	-0.13931	-0.003967	0.006561
43.168	-0.002899	-0.030518	-0.076294	-0.00061	0.054321	0.005188	-0.037537	0.007019	0.075073	0.041351	0.049286	0.005951	-0.10635	-0.22583	0.57892	0.000305	-0.003052	-0.14557	-0.11643	0.089264	-0.041656	-0.0383	-0.005646	-0.15976	-0.023499	-0.001221	-0.035706	0.002747	0.26337	-0.16876	-0.005646	0.005341
43.169	-0.007477	-0.043488	-0.14984	0.000153	0.017242	-0.016022	0.027008	-0.007172	0.050659	0.045013	0.072479	0.019073	-0.19272	-0.16647	0.4184	0.001678	0.050659	-0.16464	-0.43137	0.071411	-0.062408	-0.012817	0.072479	-0.15991	-0.031738	-0.010529	0.27405	0.001678	0.13748	-0.12085	-0.005646	-0.00061
43.17	-0.017242	-0.021515	-0.075684	-0.001831	0.005493	0.006409	0.02533	-0.005035	0.023346	0.028839	0.029449	0.010529	-0.023499	-0.15289	0.02243	0.007629	0.058289	-0.14862	-0.49332	0	-0.061035	-0.018463	0.14191	-0.1741	-0.008087	-0.010986	0.42282	0.000916	-0.14465	-0.021057	-0.001373	-0.001831
43.171	-0.015564	0	0.010834	-0.001831	-0.017242	0.007477	-0.018768	0.000916	-0.001526	0.015411	0.084534	0.018921	-0.023041	-0.019531	-0.050659	0.007019	0.098267	-0.13534	-0.48111	-0.10193	-0.06012	-0.033417	0.22766	-0.13855	-0.00351	-0.001831	-0.000763	0.001068	-0.20676	0.015259	0.000305	0.00946
43.172	-0.005188	0.005493	0.14008	0.014801	-0.018311	0.030365	-0.062103	0.002289	0.012054	-0.00946	0.13367	0.009766	-0.14252	0.006256	-0.046997	0.00351	0.13611	-0.096436	-0.30594	-0.11353	-0.060883	-0.019379	0.2945	-0.098114	-0.007935	-0.013123	-0.44037	-0.002289	-0.10376	0.065155	-0.001984	-0.006409
43.173	0.002289	-0.040588	0.031891	-0.001221	-0.021362	0.024719	-0.059357	-0.001984	0.028687	-0.004883	0.21088	0.014954	-0.27893	0.037384	0.098267	0.007782	0.093842	-0.14771	-0.33646	-0.071259	-0.067902	0.000305	0.24353	-0.091553	-0.008087	-0.022583	-0.096436	-0.002899	0.26199	0.11169	-0.002899	-0.011292
43.174	0.012512	-0.006561	0.081024	0.003815	-0.10834	0.025482	-0.013275	-0.001984	-0.03067	0.014648	0.23178	0.022125	-0.2739	-0.058441	0.059204	0.011749	0.050659	-0.16693	-0.31357	-0.065308	-0.06897	-0.031586	0.16541	-0.005188	-0.010529	-0.014343	0.0383	-0.000458	0.32944	0.062408	-0.000458	-0.007477
43.175	-0.002136	-0.018768	0.10452	-0.002136	-0.15595	-0.002136	-0.002899	-0.000916	-0.077667	-0.023804	0.070343	0.014801	-0.000916	-0.015106	-0.057831	0.027924	0.016174	-0.15518	-0.37689	0.00061	-0.06958	-0.023956	0.067749	0.037689	-0.016174	0.001373	-0.062714	0.000763	-0.066833	-0.031128	-0.003662	-0.004883
